<?xml version="1.0" encoding="UTF-8" standalone="no"?>
<!-- Created with Inkscape (http://www.inkscape.org/) -->

<svg
   width="127.99994mm"
   height="127.99994mm"
   viewBox="0 0 127.99994 127.99994"
   version="1.1"
   id="svg1"
   xmlns:xlink="http://www.w3.org/1999/xlink"
   xmlns="http://www.w3.org/2000/svg"
   xmlns:svg="http://www.w3.org/2000/svg">
  <defs
     id="defs1">
    <linearGradient
       id="linearGradient9">
      <stop
         style="stop-color:#7ebae5;stop-opacity:1;"
         offset="0"
         id="stop8" />
      <stop
         style="stop-color:#007cd4;stop-opacity:1;"
         offset="0.99613774"
         id="stop9" />
    </linearGradient>
    <linearGradient
       xlink:href="#linearGradient9"
       id="linearGradient2"
       x1="110.03772"
       y1="108.45814"
       x2="17.962244"
       y2="19.541885"
       gradientUnits="userSpaceOnUse" />
  </defs>
  <path
     id="rect3"
     style="fill:url(#linearGradient2);fill-opacity:1;stroke-width:2.82231;stroke-linecap:square;stroke-opacity:0.414538;paint-order:markers stroke fill"
     d="M 29.414742,0 C 13.118962,0 0,13.118962 0,29.414742 v 69.170455 c 0,16.295773 13.118962,29.414743 29.414742,29.414743 h 69.170455 c 16.295773,0 29.414743,-13.11897 29.414743,-29.414743 V 29.414742 C 127.99994,13.118962 114.88097,0 98.585197,0 Z m 70.32749,34.685221 c 2.050868,-0.08352 4.122678,0.671496 5.608958,2.235006 2.64228,2.779574 2.40455,7.030312 -0.53278,9.530684 L 51.798389,91.584074 c -2.937328,2.500373 -7.429457,2.275212 -10.071737,-0.504362 L 22.648747,71.010653 c -2.64228,-2.779574 -2.404543,-7.030312 0.532784,-9.530685 2.937327,-2.500372 7.428939,-2.275211 10.07122,0.504362 l 14.30817,15.051795 47.718535,-40.619743 c 1.28508,-1.093913 2.867652,-1.666208 4.462776,-1.731161 z" />
</svg>
